<?xml version="1.0" encoding="utf-8"?>
<!-- Generator: Adobe Illustrator 24.2.3, SVG Export Plug-In . SVG Version: 6.00 Build 0)  -->
<svg version="1.1" xmlns="http://www.w3.org/2000/svg" xmlns:xlink="http://www.w3.org/1999/xlink" x="0px" y="0px"
	 viewBox="0 0 500 500" style="enable-background:new 0 0 500 500;" xml:space="preserve">
<style type="text/css">
	.st0{display:none;}
	.st1{display:inline;fill:#131214;}
	.st2{fill:#C39D3A;}
	.st3{fill:#604B20;}
</style>

<g id="OBJECTS">
	<g>
		<g>
			<g>
				<g>
					<path class="st2" d="M192.48,175.93c-0.11,0-0.23,0-0.34,0c-7.52-0.18-13-6.2-17.83-11.52c-3.33-3.66-6.47-7.12-9.22-7.34
						l-2.2-0.18l0.5-2.15c0.65-2.77,3.39-7.74,9.29-8.95c-2.74-8.09-1.78-13.44-1.73-13.69l0.24-1.27l1.27-0.24
						c0.24-0.05,5.6-1,13.69,1.73c1.21-5.9,6.18-8.64,8.95-9.29l2.15-0.5l0.18,2.2c0.22,2.76,3.68,5.9,7.34,9.23
						c5.32,4.83,11.34,10.31,11.52,17.83c0.12,5.17-2.54,10.4-8.14,16C202.66,173.26,197.54,175.93,192.48,175.93z M167.79,153.87
						c3.26,1.31,6.23,4.57,9.33,7.99c4.53,4.98,9.21,10.13,15.1,10.27c4.04,0.1,8.4-2.2,13.22-7.03c4.82-4.82,7.12-9.15,7.03-13.22
						c-0.14-5.89-5.29-10.57-10.27-15.1c-3.41-3.1-6.68-6.07-7.99-9.34c-1.85,0.97-4.49,3.14-4.54,7.54l-0.03,2.79l-2.59-1.05
						c-5.84-2.36-10.34-2.58-12.5-2.51c-0.08,2.16,0.15,6.66,2.51,12.5l1.04,2.59l-2.79,0.03
						C170.92,149.37,168.76,152.01,167.79,153.87z"/>
				</g>
				<g>
					<path class="st2" d="M313.51,216.16l-1.68-1.43c-1.11-0.94-4.03-0.8-6.85-0.67c-4.64,0.22-9.9,0.47-13.54-2.99
						c-2.49-2.38-3.71-6.05-3.71-11.22s1.21-8.84,3.71-11.22c3.63-3.47,8.9-3.21,13.54-2.99c2.83,0.13,5.75,0.27,6.85-0.67
						l1.68-1.43l1.17,1.88c0.97,1.56,1.98,4.93,0.24,8.18c4.48,2.38,6.34,5.06,6.43,5.19l0.73,1.07l-0.73,1.07
						c-0.09,0.13-1.95,2.81-6.43,5.19c1.73,3.25,0.72,6.62-0.24,8.18L313.51,216.16z M307.93,210.16c1.48,0,2.86,0.11,4.08,0.47
						c0.17-1.08,0.02-2.54-1.34-3.93l-1.95-1.99l2.57-1.09c3-1.27,4.9-2.78,5.94-3.78c-1.04-0.99-2.94-2.51-5.94-3.78l-2.57-1.09
						l1.95-1.99c1.37-1.39,1.51-2.85,1.34-3.93c-2.05,0.62-4.59,0.5-7.23,0.37c-4.07-0.19-8.28-0.4-10.73,1.95
						c-1.68,1.6-2.53,4.45-2.53,8.47c0,4.02,0.85,6.87,2.53,8.47c2.46,2.34,6.67,2.14,10.73,1.95
						C305.87,210.21,306.92,210.16,307.93,210.16z"/>
				</g>
				<g>
					<path class="st2" d="M249.99,232.13c-0.48,0-0.96-0.18-1.32-0.54c-0.74-0.73-0.77-1.91-0.05-2.67l0.01-0.01
						c5.18-5.18,5.12-11.12-0.18-18.7c-1.17-1.68-2.6-3.45-4.24-5.26c-1.09-1.21-2.31-2.47-3.62-3.74
						c-4.6-4.52-10.05-9.12-15.33-13.56c-8.11-6.83-15.77-13.28-20.55-19.47c-0.64-0.83-0.49-2.02,0.34-2.67
						c0.83-0.64,2.02-0.49,2.67,0.34c4.53,5.87,12.04,12.19,19.99,18.89c5.33,4.49,10.85,9.14,15.54,13.75
						c1.36,1.33,2.64,2.64,3.78,3.91c1.75,1.92,3.28,3.82,4.54,5.63c6.36,9.11,6.29,17.03-0.22,23.53
						C250.97,231.94,250.48,232.13,249.99,232.13z"/>
				</g>
				<g>
					<path class="st2" d="M307.52,175.93c-5.06,0-10.18-2.67-15.66-8.14c-5.6-5.6-8.26-10.83-8.14-16
						c0.18-7.52,6.2-12.99,11.52-17.83c3.66-3.33,7.12-6.47,7.34-9.23l0.18-2.2l2.15,0.5c2.77,0.65,7.74,3.38,8.95,9.29
						c8.09-2.74,13.44-1.78,13.69-1.73l1.27,0.24l0.24,1.27c0.05,0.24,1,5.6-1.73,13.69c5.9,1.21,8.64,6.18,9.29,8.95l0.5,2.15
						l-2.2,0.18c-2.76,0.22-5.9,3.68-9.23,7.34c-4.83,5.31-10.31,11.34-17.83,11.52C307.75,175.93,307.64,175.93,307.52,175.93z
						 M305.79,127.44c-1.31,3.27-4.57,6.23-7.99,9.34c-4.98,4.53-10.13,9.21-10.27,15.1c-0.1,4.07,2.2,8.4,7.03,13.22
						c4.83,4.82,9.21,7.1,13.22,7.03c5.89-0.14,10.57-5.29,15.1-10.27c3.11-3.42,6.07-6.68,9.34-7.99
						c-0.97-1.85-3.13-4.49-7.54-4.54l-2.79-0.03l1.04-2.59c2.36-5.84,2.58-10.34,2.51-12.5c-2.16-0.07-6.66,0.15-12.5,2.51
						l-2.59,1.05l-0.03-2.79C310.28,130.57,307.64,128.41,305.79,127.44z"/>
				</g>
				<g>
					<path class="st2" d="M248.64,231.55l-0.01-0.01c-6.47-6.47-6.55-14.39-0.18-23.5c1.13-1.63,2.46-3.29,4.06-5.08
						c1.24-1.41,2.64-2.87,4.27-4.47c4.69-4.61,10.2-9.25,15.53-13.74c7.95-6.7,15.46-13.02,19.99-18.89
						c0.64-0.83,1.84-0.98,2.67-0.34c0.83,0.64,0.99,1.84,0.34,2.67c-4.78,6.19-12.44,12.64-20.55,19.47
						c-5.28,4.45-10.73,9.04-15.32,13.55c-1.57,1.53-2.91,2.93-4.09,4.27c-1.48,1.66-2.75,3.25-3.78,4.73
						c-5.3,7.59-5.37,13.52-0.22,18.67l-1.33,1.36L248.64,231.55z"/>
				</g>
				<g>
					<path class="st2" d="M206.2,234.57c-0.41,0-0.81-0.13-1.16-0.4c-0.83-0.64-0.99-1.84-0.34-2.67
						c4.78-6.2,12.46-12.66,20.58-19.5c5.27-4.43,10.71-9.02,15.29-13.52c1.6-1.57,2.94-2.98,4.09-4.28
						c1.48-1.66,2.75-3.25,3.78-4.73c5.37-7.7,5.43-13.45,0.22-18.67l1.33-1.36l1.38-1.31l0.01,0.01c6.47,6.47,6.54,14.38,0.18,23.5
						c-1.13,1.63-2.46,3.3-4.06,5.08c-1.2,1.37-2.6,2.83-4.27,4.47c-4.68,4.6-10.19,9.23-15.51,13.72
						c-7.96,6.7-15.48,13.04-20.02,18.91C207.33,234.32,206.77,234.57,206.2,234.57z"/>
				</g>
				<g>
					<path class="st2" d="M293.8,234.57c-0.57,0-1.13-0.25-1.51-0.74c-4.54-5.88-12.06-12.21-20.02-18.91
						c-5.32-4.48-10.82-9.11-15.51-13.71c-1.43-1.4-2.66-2.68-3.78-3.92c-1.75-1.92-3.28-3.82-4.54-5.63
						c-6.36-9.11-6.28-17.03,0.22-23.53c0.74-0.74,1.93-0.75,2.68-0.02c0.74,0.73,0.77,1.91,0.05,2.67l-0.01,0.01
						c-5.25,5.25-5.18,11.01,0.18,18.7c1.17,1.68,2.6,3.45,4.24,5.26c1.07,1.19,2.25,2.42,3.63,3.76
						c4.58,4.5,10.03,9.08,15.29,13.52c8.12,6.84,15.79,13.3,20.58,19.5c0.64,0.83,0.49,2.02-0.34,2.67
						C294.61,234.44,294.2,234.57,293.8,234.57z"/>
				</g>
				<g>
					<path class="st2" d="M249.61,116.59c-5.56,0-10.07-4.52-10.07-10.08c0-3.52,1.91-14.67,6.2-18.96c1.19-1.19,2.53-1.79,3.9-1.79
						c7.43,0.01,10.05,17.09,10.05,20.75C259.69,112.07,255.17,116.59,249.61,116.59z M249.63,89.56c-0.43,0-0.9,0.37-1.21,0.68
						c-2.94,2.93-5.08,12.44-5.08,16.27c0,3.46,2.81,6.27,6.27,6.27c3.46,0,6.27-2.81,6.27-6.27
						C255.89,100.91,252.45,89.56,249.63,89.56L249.63,89.56C249.63,89.56,249.63,89.56,249.63,89.56z"/>
				</g>
				<g>
					<path class="st2" d="M342.39,194.04c-2.07,0-4.01-0.8-5.47-2.27c-1.46-1.46-2.27-3.4-2.27-5.47c0-2.07,0.8-4.01,2.27-5.47
						c1.82-1.82,8.59-6.6,13.07-6.6c0,0,0,0,0,0c1.69,0,2.7,0.67,3.26,1.22c4.3,4.31-4.11,15.02-5.4,16.31
						C346.4,193.23,344.46,194.04,342.39,194.04z M350,178.04c-2.78,0-8.56,3.65-10.38,5.48c-0.74,0.74-1.15,1.73-1.15,2.78
						c0,1.05,0.41,2.04,1.15,2.78c1.49,1.49,4.07,1.49,5.56,0c2.9-2.9,6.38-9.95,5.4-10.94l0,0
						C350.54,178.12,350.38,178.04,350,178.04L350,178.04z"/>
				</g>
				<g>
					<path class="st2" d="M282.16,123.86c-2.07,0-4.01-0.8-5.47-2.27c-1.46-1.46-2.27-3.4-2.27-5.47c0-2.07,0.8-4.01,2.27-5.47
						c1.82-1.82,8.59-6.6,13.07-6.6c0,0,0,0,0,0c1.69,0,2.7,0.67,3.26,1.22l0,0c4.3,4.31-4.11,15.02-5.4,16.31
						C286.17,123.05,284.22,123.86,282.16,123.86z M289.76,107.86c-2.78,0-8.56,3.65-10.38,5.48c-0.74,0.74-1.15,1.73-1.15,2.78
						c0,1.05,0.41,2.04,1.15,2.78c1.49,1.49,4.07,1.49,5.56,0c2.9-2.9,6.38-9.95,5.4-10.94l0,0
						C290.3,107.94,290.14,107.86,289.76,107.86L289.76,107.86z"/>
				</g>
				<g>
					<path class="st2" d="M219.32,123.86c-2.07,0-4.01-0.8-5.47-2.27c-1.29-1.29-9.7-12-5.4-16.31l0,0
						c0.56-0.56,1.57-1.22,3.26-1.22c0,0,0,0,0,0c4.49,0,11.26,4.78,13.07,6.6c1.46,1.46,2.27,3.4,2.27,5.47
						c0,2.07-0.8,4.01-2.27,5.47C223.33,123.05,221.38,123.86,219.32,123.86z M211.14,107.97c-0.98,0.99,2.5,8.04,5.4,10.94
						c1.49,1.49,4.07,1.49,5.56,0c0.74-0.74,1.15-1.73,1.15-2.78c0-1.05-0.41-2.04-1.15-2.78c-1.83-1.83-7.6-5.48-10.38-5.48
						c0,0,0,0,0,0C211.33,107.86,211.17,107.94,211.14,107.97L211.14,107.97z"/>
				</g>
				<g>
					<path class="st2" d="M234.63,170.41c-4.26,0-7.73-3.47-7.73-7.73c0-1.82,1.63-15.34,7.72-15.35c0,0,0,0,0,0
						c0.79,0,1.97,0.25,3.16,1.44c3.17,3.17,4.58,11.34,4.58,13.91C242.37,166.94,238.9,170.41,234.63,170.41z M234.62,149.23l0,1.9
						c-1.39,0-3.92,7.45-3.92,11.55c0,2.17,1.76,3.93,3.93,3.93c2.17,0,3.93-1.76,3.93-3.93c0-2.59-1.5-9.25-3.47-11.22
						c-0.27-0.27-0.44-0.33-0.48-0.33L234.62,149.23z"/>
				</g>
				<g>
					<path class="st2" d="M350,225.27c-4.49,0-11.26-4.78-13.07-6.6c-1.46-1.46-2.27-3.4-2.27-5.47c0-2.07,0.8-4.01,2.27-5.47
						c3.01-3.01,7.92-3.02,10.93,0c1.29,1.29,9.7,12,5.4,16.31l0,0C352.7,224.61,351.69,225.27,350,225.27
						C350,225.27,350,225.27,350,225.27z M342.39,209.28c-1.01,0-2.01,0.38-2.78,1.15c-0.74,0.74-1.15,1.73-1.15,2.78
						c0,1.05,0.41,2.04,1.15,2.78c1.83,1.83,7.6,5.48,10.38,5.48c0,0,0,0,0,0c0.38,0,0.54-0.08,0.57-0.11l0,0
						c0.98-0.99-2.5-8.04-5.4-10.94C344.41,209.66,343.4,209.28,342.39,209.28z"/>
				</g>
				<g>
					<path class="st2" d="M246.09,197.37c-0.45,0-0.9-0.16-1.26-0.48c-15.47-13.78-12.43-28.33-12.29-28.94
						c0.23-1.02,1.25-1.67,2.27-1.44c1.02,0.23,1.67,1.25,1.44,2.27c-0.11,0.52-2.62,13.04,11.11,25.27c0.78,0.7,0.85,1.9,0.15,2.68
						C247.13,197.15,246.61,197.37,246.09,197.37z"/>
				</g>
				<g>
					<path class="st2" d="M254.4,197.91c-0.45,0-0.9-0.16-1.27-0.49c-0.78-0.7-0.85-1.9-0.15-2.68
						c23.35-26.07,13.41-41.95,3.8-57.32c-4.78-7.64-9.29-14.85-9.08-22.79c0.03-1.05,0.92-1.91,1.95-1.85
						c1.05,0.03,1.88,0.9,1.85,1.95c-0.18,6.79,4.04,13.53,8.5,20.67c9.38,15,21.06,33.67-4.2,61.87
						C255.44,197.7,254.92,197.91,254.4,197.91z"/>
				</g>
				<g>
					<path class="st2" d="M241.07,201.74h-29.13c-1.05,0-1.9-0.85-1.9-1.9c0-1.05,0.85-1.9,1.9-1.9h29.13c1.05,0,1.9,0.85,1.9,1.9
						C242.97,200.89,242.12,201.74,241.07,201.74z"/>
				</g>
				<g>
					<path class="st2" d="M289.63,201.74H260.5c-1.05,0-1.9-0.85-1.9-1.9c0-1.05,0.85-1.9,1.9-1.9h29.13c1.05,0,1.9,0.85,1.9,1.9
						C291.53,200.89,290.68,201.74,289.63,201.74z"/>
				</g>
				<g>
					<path class="st2" d="M338.28,211.04c-0.49,0-0.97-0.19-1.34-0.56c-7.24-7.24-20.8-3.33-20.94-3.29
						c-1.01,0.3-2.06-0.28-2.36-1.28c-0.3-1.01,0.27-2.06,1.28-2.36c0.64-0.19,15.86-4.6,24.72,4.25c0.74,0.74,0.74,1.95,0,2.69
						C339.25,210.86,338.77,211.04,338.28,211.04z"/>
				</g>
				<g>
					<path class="st2" d="M324.32,197.38c-5.06,0-9.09-1.17-9.41-1.27c-1.01-0.3-1.58-1.36-1.28-2.36c0.3-1.01,1.35-1.58,2.36-1.28
						c0.13,0.04,13.7,3.95,20.94-3.29c0.74-0.74,1.95-0.74,2.69,0c0.74,0.74,0.74,1.95,0,2.69
						C335.24,196.25,329.29,197.38,324.32,197.38z"/>
				</g>
				<g>
					<path class="st2" d="M268.81,161.44c-0.89,0-1.68-0.63-1.86-1.53c-6.59-32.95,9.53-41.09,10.22-41.42
						c0.95-0.45,2.08-0.05,2.54,0.89c0.45,0.95,0.05,2.08-0.89,2.54c-0.57,0.28-14.1,7.41-8.14,37.24c0.21,1.03-0.46,2.03-1.49,2.24
						C269.06,161.43,268.93,161.44,268.81,161.44z"/>
				</g>
				<g>
					<path class="st2" d="M265.99,180.78c-0.16,0-0.32-0.02-0.48-0.06c-1.02-0.26-1.63-1.3-1.36-2.32
						c3.91-15.15-7.82-23.93-20.24-33.24c-9.24-6.93-18.8-14.09-22.27-24.31c-0.34-0.99,0.2-2.07,1.19-2.41
						c0.99-0.34,2.07,0.2,2.41,1.19c3.09,9.11,12.17,15.91,20.95,22.49c12.87,9.64,26.18,19.62,21.64,37.23
						C267.61,180.21,266.84,180.78,265.99,180.78z"/>
				</g>
				<g>
					<g>
						<path class="st2" d="M302.75,277.15l-0.18-2.2c-0.22-2.76-3.68-5.9-7.34-9.23c-5.31-4.83-11.34-10.31-11.52-17.83
							c-0.12-5.17,2.54-10.4,8.14-16c5.6-5.6,10.8-8.28,16-8.14c7.52,0.18,13,6.2,17.83,11.52c3.33,3.66,6.47,7.12,9.23,7.34
							l2.2,0.18l-0.5,2.15c-0.65,2.78-3.39,7.74-9.29,8.95c2.73,8.09,1.78,13.45,1.73,13.69l-0.24,1.27l-1.27,0.24
							c-0.24,0.05-5.6,1-13.69-1.73c-1.21,5.9-6.18,8.64-8.95,9.29L302.75,277.15z M307.53,227.55c-4,0-8.25,2.3-12.97,7.03
							c-4.82,4.82-7.12,9.15-7.03,13.22c0.14,5.89,5.29,10.57,10.27,15.1c3.41,3.1,6.68,6.07,7.99,9.34
							c1.85-0.97,4.49-3.14,4.54-7.54l0.03-2.79l2.59,1.05c5.84,2.36,10.33,2.58,12.5,2.51c0.08-2.16-0.15-6.66-2.51-12.5
							l-1.04-2.59l2.79-0.03c4.4-0.04,6.56-2.69,7.54-4.54c-3.26-1.31-6.23-4.57-9.34-7.99c-4.53-4.98-9.21-10.13-15.1-10.27
							C307.69,227.55,307.61,227.55,307.53,227.55z"/>
					</g>
					<g>
						<path class="st2" d="M186.49,216.16l-1.17-1.88c-0.97-1.56-1.98-4.93-0.24-8.18c-4.48-2.38-6.34-5.06-6.43-5.19l-0.73-1.07
							l0.73-1.07c0.09-0.13,1.95-2.81,6.43-5.19c-1.73-3.25-0.72-6.62,0.24-8.18l1.17-1.88l1.68,1.43c1.11,0.94,4.03,0.8,6.85,0.67
							c4.64-0.22,9.9-0.47,13.54,2.99c2.49,2.38,3.71,6.05,3.71,11.22c0,5.17-1.21,8.84-3.71,11.22c-3.63,3.47-8.9,3.22-13.54,2.99
							c-2.83-0.14-5.75-0.27-6.85,0.67L186.49,216.16z M182.77,199.84c1.04,0.99,2.94,2.51,5.94,3.78l2.57,1.09l-1.95,1.99
							c-1.37,1.39-1.51,2.85-1.34,3.93c2.05-0.62,4.59-0.5,7.23-0.37c4.07,0.19,8.28,0.39,10.73-1.95c1.68-1.6,2.53-4.45,2.53-8.47
							c0-4.02-0.85-6.87-2.53-8.47c-2.46-2.34-6.67-2.14-10.73-1.95c-2.63,0.12-5.17,0.25-7.22-0.37c-0.17,1.08-0.02,2.54,1.34,3.93
							l1.95,1.99l-2.57,1.09C185.71,197.33,183.81,198.84,182.77,199.84z"/>
					</g>
					<g>
						<path class="st2" d="M197.25,277.15l-2.15-0.5c-2.77-0.65-7.74-3.39-8.95-9.29c-8.09,2.74-13.44,1.78-13.69,1.73l-1.27-0.24
							l-0.24-1.27c-0.05-0.24-1-5.6,1.73-13.69c-5.9-1.21-8.64-6.18-9.29-8.95l-0.5-2.15l2.2-0.18c2.76-0.22,5.9-3.68,9.23-7.34
							c4.83-5.31,10.31-11.34,17.83-11.52c5.15-0.15,10.4,2.54,16,8.14c5.6,5.6,8.26,10.83,8.14,16c-0.18,7.52-6.2,13-11.52,17.83
							c-3.66,3.33-7.12,6.47-7.34,9.23L197.25,277.15z M189.65,261.92l0.03,2.79c0.04,4.4,2.69,6.56,4.54,7.54
							c1.31-3.27,4.57-6.23,7.99-9.34c4.98-4.53,10.13-9.21,10.27-15.1c0.1-4.07-2.2-8.4-7.03-13.22
							c-4.73-4.73-8.97-7.03-12.97-7.03c-0.08,0-0.17,0-0.25,0c-5.89,0.14-10.57,5.29-15.1,10.27c-3.11,3.42-6.07,6.68-9.34,7.99
							c0.97,1.85,3.13,4.49,7.54,4.54l2.79,0.03l-1.04,2.59c-2.36,5.84-2.58,10.34-2.51,12.5c2.17,0.08,6.66-0.15,12.5-2.51
							L189.65,261.92z"/>
					</g>
					<g>
						<path class="st2" d="M250.37,313.92C250.37,313.92,250.37,313.92,250.37,313.92L250.37,313.92
							c-7.44-0.01-10.06-17.09-10.06-20.75c0-5.56,4.52-10.08,10.08-10.08c5.56,0,10.08,4.52,10.08,10.08
							c0,3.52-1.91,14.67-6.2,18.96C253.07,313.32,251.76,313.92,250.37,313.92z M250.37,310.12L250.37,310.12
							c0.43,0,0.9-0.37,1.21-0.68c2.94-2.93,5.08-12.44,5.08-16.27c0-3.46-2.81-6.27-6.27-6.27c-3.46,0-6.27,2.81-6.27,6.27
							C244.11,298.77,247.55,310.12,250.37,310.12L250.37,310.12z"/>
					</g>
					<g>
						<path class="st2" d="M150,225.44C150,225.44,150,225.44,150,225.44c-1.69,0-2.71-0.67-3.26-1.22
							c-4.3-4.31,4.11-15.02,5.4-16.31c3.01-3.01,7.92-3.02,10.93,0c1.46,1.46,2.27,3.4,2.27,5.47c0,2.07-0.8,4.01-2.27,5.47
							C161.26,220.66,154.49,225.44,150,225.44z M157.61,209.45c-1.01,0-2.01,0.38-2.78,1.15c-2.9,2.9-6.38,9.95-5.4,10.94l0,0
							c0.03,0.03,0.19,0.11,0.57,0.11h0c2.78,0,8.56-3.65,10.38-5.48c0.74-0.74,1.15-1.73,1.15-2.78c0-1.05-0.41-2.04-1.15-2.78
							C159.62,209.83,158.61,209.45,157.61,209.45z"/>
					</g>
					<g>
						<path class="st2" d="M210.22,295.62c-1.35,0-2.43-0.41-3.24-1.22l0,0c-4.3-4.31,4.11-15.02,5.4-16.31
							c3.01-3.01,7.92-3.02,10.94,0c1.46,1.46,2.27,3.4,2.27,5.47s-0.8,4.01-2.27,5.47c-1.26,1.26-4.22,3.4-7.21,4.87
							C213.78,295.05,211.81,295.62,210.22,295.62z M209.67,291.72c0.15,0.15,1.46,0.4,4.75-1.22c2.79-1.38,5.31-3.26,6.2-4.15
							c0.74-0.74,1.15-1.73,1.15-2.78c0-1.05-0.41-2.04-1.15-2.78c-1.53-1.53-4.03-1.53-5.56,0
							C212.16,283.68,208.68,290.73,209.67,291.72L209.67,291.72z"/>
					</g>
					<g>
						<path class="st2" d="M288.31,295.62c-1.6,0-3.56-0.57-5.88-1.72c-2.99-1.48-5.95-3.61-7.21-4.87
							c-1.46-1.46-2.27-3.4-2.27-5.47s0.8-4.01,2.27-5.47c3.01-3.01,7.92-3.02,10.94,0c1.29,1.29,9.7,12,5.4,16.31l0,0
							C290.74,295.22,289.65,295.62,288.31,295.62z M290.2,293.06h0.01H290.2z M280.68,279.63c-1.01,0-2.01,0.38-2.78,1.15
							c-0.74,0.74-1.15,1.73-1.15,2.78c0,1.05,0.41,2.04,1.15,2.78c0.9,0.9,3.41,2.78,6.2,4.15c3.29,1.62,4.6,1.37,4.75,1.22
							c0.98-0.99-2.5-8.04-5.4-10.94C282.7,280.01,281.69,279.63,280.68,279.63z"/>
					</g>
					<g>
						<path class="st2" d="M265.38,252.35c-0.79,0-1.97-0.25-3.16-1.44c-3.17-3.17-4.58-11.34-4.58-13.91
							c0-4.26,3.47-7.73,7.73-7.73c4.26,0,7.73,3.47,7.73,7.73C273.1,238.82,271.47,252.35,265.38,252.35L265.38,252.35
							C265.38,252.35,265.38,252.35,265.38,252.35z M265.38,250.45h0.01H265.38z M265.37,233.07c-2.17,0-3.93,1.76-3.93,3.93
							c0,2.59,1.5,9.25,3.47,11.22c0.27,0.27,0.43,0.33,0.48,0.33c1.39,0,3.92-7.45,3.92-11.55
							C269.3,234.83,267.54,233.07,265.37,233.07z"/>
					</g>
					<g>
						<path class="st2" d="M157.61,194.2c-2.07,0-4.01-0.8-5.47-2.27c-1.29-1.29-9.7-12-5.4-16.31c0.56-0.56,1.57-1.22,3.26-1.22
							c0,0,0,0,0,0c4.49,0,11.26,4.78,13.07,6.6c1.46,1.46,2.27,3.4,2.27,5.47c0,2.07-0.8,4.01-2.27,5.47
							C161.61,193.4,159.67,194.2,157.61,194.2z M150,178.21L150,178.21c-0.38,0-0.54,0.08-0.57,0.11l0,0
							c-0.98,0.99,2.5,8.04,5.4,10.94c1.49,1.49,4.07,1.49,5.56,0c0.74-0.74,1.15-1.73,1.15-2.78c0-1.05-0.41-2.04-1.15-2.78
							C158.56,181.86,152.79,178.21,150,178.21z M148.09,176.97h0.01H148.09z"/>
					</g>
					<g>
						<path class="st2" d="M265.61,233.22c-0.14,0-0.28-0.02-0.42-0.05c-1.02-0.23-1.67-1.25-1.44-2.27
							c0.11-0.52,2.62-13.04-11.11-25.27c-0.78-0.7-0.85-1.9-0.15-2.68c0.7-0.78,1.9-0.86,2.68-0.16
							c15.47,13.78,12.43,28.33,12.29,28.94C267.27,232.62,266.48,233.22,265.61,233.22z"/>
					</g>
					<g>
						<path class="st2" d="M250.39,286.9c-0.02,0-0.03,0-0.05,0c-1.05-0.03-1.88-0.9-1.85-1.95c0.18-6.79-4.04-13.53-8.5-20.67
							c-9.38-15-21.06-33.67,4.2-61.87c0.7-0.78,1.9-0.85,2.68-0.15c0.78,0.7,0.85,1.9,0.15,2.68
							c-23.35,26.07-13.41,41.95-3.8,57.32c4.78,7.64,9.29,14.85,9.08,22.79C252.26,286.08,251.42,286.9,250.39,286.9z"/>
					</g>
					<g>
						<path class="st2" d="M288.06,201.74h-29.13c-1.05,0-1.9-0.85-1.9-1.9c0-1.05,0.85-1.9,1.9-1.9h29.13c1.05,0,1.9,0.85,1.9,1.9
							C289.96,200.89,289.11,201.74,288.06,201.74z"/>
					</g>
					<g>
						<path class="st2" d="M239.5,201.74h-29.13c-1.05,0-1.9-0.85-1.9-1.9c0-1.05,0.85-1.9,1.9-1.9h29.13c1.05,0,1.9,0.85,1.9,1.9
							C241.41,200.89,240.55,201.74,239.5,201.74z"/>
					</g>
					<g>
						<path class="st2" d="M175.68,197.4c-4.97,0-10.92-1.13-15.3-5.52c-0.74-0.74-0.74-1.95,0-2.69c0.74-0.74,1.95-0.74,2.69,0
							c7.24,7.24,20.81,3.33,20.94,3.29c1.01-0.3,2.06,0.28,2.36,1.28c0.3,1.01-0.27,2.06-1.28,2.36
							C184.77,196.23,180.73,197.4,175.68,197.4z"/>
					</g>
					<g>
						<path class="st2" d="M161.72,211.06c-0.49,0-0.97-0.19-1.34-0.56c-0.74-0.74-0.74-1.95,0-2.69
							c8.85-8.85,24.07-4.44,24.72-4.25c1.01,0.3,1.58,1.36,1.28,2.36c-0.3,1-1.35,1.58-2.36,1.28c-0.13-0.04-13.7-3.95-20.94,3.29
							C162.69,210.88,162.21,211.06,161.72,211.06z"/>
					</g>
					<g>
						<path class="st2" d="M222.01,281.38c-0.71,0-1.39-0.4-1.72-1.08c-0.45-0.95-0.05-2.08,0.89-2.54
							c0.57-0.28,14.1-7.41,8.14-37.24c-0.21-1.03,0.46-2.03,1.49-2.24c1.02-0.21,2.03,0.46,2.24,1.49
							c6.59,32.95-9.53,41.09-10.22,41.42C222.57,281.32,222.29,281.38,222.01,281.38z"/>
					</g>
					<g>
						<path class="st2" d="M276.56,281.34c-0.79,0-1.53-0.5-1.8-1.29c-3.09-9.11-12.17-15.91-20.95-22.49
							c-12.87-9.64-26.18-19.62-21.64-37.23c0.26-1.02,1.3-1.63,2.32-1.37c1.02,0.26,1.63,1.3,1.37,2.32
							c-3.91,15.15,7.82,23.94,20.24,33.24c9.24,6.93,18.8,14.09,22.27,24.31c0.34,0.99-0.2,2.07-1.19,2.41
							C276.97,281.3,276.76,281.34,276.56,281.34z"/>
					</g>
				</g>
			</g>
			<g>
				<path class="st3" d="M214.81,138.75c3.26-1.89,6.68-3.52,10.25-4.88c-0.79-0.92-1.56-1.86-2.29-2.85
					c-0.08-0.11-0.16-0.24-0.24-0.35c-3.6,1.43-7.06,3.14-10.36,5.09c0.5,0.51,0.99,1.03,1.47,1.58
					C214.04,137.8,214.43,138.27,214.81,138.75z"/>
				<path class="st3" d="M263.72,130.66c0.43-1.33,0.91-2.56,1.42-3.7c-2.09-0.43-4.21-0.76-6.36-1.02c0.74,1.38,1.58,2.8,2.49,4.28
					C262.09,130.35,262.91,130.5,263.72,130.66z"/>
				<path class="st3" d="M237.63,130.42c3.29-0.59,6.67-0.94,10.1-1.05c-0.62-1.26-1.22-2.53-1.73-3.85
					c-4,0.21-7.91,0.75-11.72,1.57C235.3,128.21,236.42,129.31,237.63,130.42z"/>
				<path class="st3" d="M319.75,189.38c1.12,0.18,2.5,0.33,3.98,0.37c-0.69-5.09-1.9-10.02-3.57-14.73
					c-1.05,0.79-2.16,1.54-3.38,2.19C318.12,181.13,319.13,185.19,319.75,189.38z"/>
				<path class="st3" d="M323.74,209.91c-1.48,0.03-2.86,0.19-3.98,0.37c-0.62,4.19-1.63,8.25-2.96,12.16
					c1.21,0.66,2.33,1.41,3.37,2.21C321.84,219.93,323.05,215,323.74,209.91z"/>
				<path class="st3" d="M285.19,260.93c-3.26,1.89-6.68,3.52-10.25,4.88c0.79,0.92,1.56,1.86,2.29,2.85
					c0.08,0.11,0.16,0.24,0.24,0.35c3.6-1.43,7.06-3.14,10.36-5.09c-0.5-0.51-0.99-1.03-1.47-1.58
					C285.96,261.88,285.57,261.41,285.19,260.93z"/>
				<path class="st3" d="M236.28,269.02c-0.43,1.33-0.91,2.56-1.42,3.7c2.09,0.43,4.21,0.76,6.36,1.02
					c-0.74-1.38-1.58-2.8-2.49-4.28C237.91,269.33,237.09,269.18,236.28,269.02z"/>
				<path class="st3" d="M262.37,269.27c-3.29,0.59-6.67,0.94-10.1,1.05c0.62,1.26,1.22,2.53,1.73,3.85c4-0.21,7.91-0.75,11.72-1.57
					C264.7,271.48,263.58,270.37,262.37,269.27z"/>
				<path class="st3" d="M214.82,260.94c-0.01,0.01-0.01,0.02-0.02,0.02c-0.85,1.05-1.74,2.02-2.64,2.95
					c3.67,2.17,7.54,4.04,11.57,5.57c0.55-0.99,1.09-2.17,1.57-3.58C221.66,264.54,218.16,262.87,214.82,260.94z"/>
				<path class="st3" d="M205.1,254.78c0.1-0.12,0.19-0.23,0.29-0.35c-7.2-5.89-13.21-13.18-17.63-21.44
					c-0.39,0.25-0.78,0.52-1.18,0.83c-0.63,0.48-1.27,1.04-1.92,1.64c4.58,8.37,10.72,15.77,18.03,21.8
					C203.56,256.43,204.38,255.59,205.1,254.78z"/>
				<path class="st3" d="M184.66,164.21c0.2,0.18,0.4,0.37,0.59,0.55c0.86,0.77,1.7,1.42,2.51,1.94
					c4.42-8.27,10.43-15.56,17.64-21.45c-0.8-0.93-1.72-1.87-2.71-2.83C195.38,148.44,189.24,155.84,184.66,164.21z"/>
				<path class="st3" d="M315.34,235.47c-0.2-0.18-0.4-0.37-0.59-0.55c-0.86-0.77-1.7-1.42-2.51-1.94
					c-4.42,8.27-10.43,15.56-17.64,21.45c0.8,0.93,1.72,1.87,2.71,2.83C304.62,251.24,310.76,243.84,315.34,235.47z"/>
				<path class="st3" d="M176.26,189.77c1.48-0.03,2.86-0.19,3.98-0.37c0.62-4.19,1.63-8.25,2.96-12.16
					c-1.21-0.66-2.33-1.41-3.37-2.21C178.16,179.75,176.95,184.68,176.26,189.77z"/>
				<path class="st3" d="M285.18,138.74c0.01-0.01,0.01-0.02,0.02-0.02c0.85-1.05,1.74-2.02,2.64-2.95
					c-3.67-2.17-7.54-4.04-11.57-5.57c-0.55,0.99-1.09,2.17-1.57,3.58C278.34,135.15,281.84,136.82,285.18,138.74z"/>
				<path class="st3" d="M180.25,210.3c-1.12-0.18-2.5-0.33-3.98-0.37c0.69,5.09,1.9,10.02,3.57,14.73
					c1.05-0.79,2.16-1.54,3.38-2.19C181.88,218.55,180.87,214.49,180.25,210.3z"/>
				<path class="st3" d="M294.89,144.9c-0.1,0.12-0.19,0.23-0.29,0.35c7.2,5.89,13.21,13.18,17.63,21.44
					c0.39-0.25,0.78-0.52,1.18-0.83c0.63-0.48,1.27-1.04,1.92-1.64c-4.58-8.37-10.72-15.77-18.03-21.8
					C296.44,143.25,295.62,144.09,294.89,144.9z"/>
			</g>
		</g>
	</g>
</g>
</svg>
